<svg width="16" height="16" viewBox="0 0 16 16" fill="none" xmlns="http://www.w3.org/2000/svg">
<g id="svgexport-18 (10) 1">
<g id="Group">
<path id="6-Check" d="M7.38446 14.1797C7.34201 14.1797 7.30003 14.171 7.26115 14.1539C7.22227 14.1369 7.18732 14.1121 7.15852 14.0809L1.06661 7.49119C1.026 7.44726 0.999078 7.39244 0.989139 7.33344C0.9792 7.27445 0.986676 7.21384 1.01065 7.15902C1.03463 7.10421 1.07406 7.05758 1.12413 7.02483C1.17419 6.99208 1.23272 6.97464 1.29255 6.97464H4.22486C4.26888 6.97464 4.3124 6.98409 4.35246 7.00234C4.39252 7.0206 4.42821 7.04723 4.4571 7.08045L6.49304 9.42273C6.71307 8.95239 7.13901 8.16925 7.88646 7.21497C8.99144 5.8042 11.0468 3.7294 14.5632 1.85642C14.6312 1.82023 14.7102 1.81083 14.7848 1.83009C14.8593 1.84936 14.924 1.89587 14.9659 1.96046C15.0078 2.02504 15.024 2.103 15.0113 2.17894C14.9985 2.25488 14.9578 2.32328 14.897 2.37064C14.8836 2.38113 13.5278 3.44882 11.9674 5.40448C10.5314 7.20417 8.62239 10.1469 7.68304 13.946C7.66654 14.0128 7.62816 14.0721 7.57402 14.1144C7.51989 14.1568 7.45312 14.1799 7.38436 14.1799L7.38446 14.1797Z" fill="white"/>
</g>
</g>
</svg>
